<mxfile host="app.diagrams.net" modified="2024-07-17T16:55:06.382Z" agent="Mozilla/5.0 (Windows NT 10.0; Win64; x64) AppleWebKit/537.36 (KHTML, like Gecko) Chrome/126.0.0.0 Safari/537.36 Edg/126.0.0.0" etag="SgWYglJAjgCgGPixnkov" version="24.7.1" type="github">
  <diagram name="第 1 页" id="Qmh0PPxZj3l3cuRtMKvN">
    <mxGraphModel dx="139" dy="458" grid="1" gridSize="10" guides="1" tooltips="1" connect="1" arrows="1" fold="1" page="1" pageScale="1" pageWidth="827" pageHeight="1169" math="0" shadow="0">
      <root>
        <mxCell id="0" />
        <mxCell id="1" parent="0" />
        <mxCell id="fMN76NUoh_S9sjrAMHmD-36" style="rounded=0;orthogonalLoop=1;jettySize=auto;html=1;exitX=0.5;exitY=1;exitDx=0;exitDy=0;entryX=0.5;entryY=0;entryDx=0;entryDy=0;" edge="1" parent="1" source="fMN76NUoh_S9sjrAMHmD-37" target="fMN76NUoh_S9sjrAMHmD-49">
          <mxGeometry relative="1" as="geometry" />
        </mxCell>
        <mxCell id="fMN76NUoh_S9sjrAMHmD-37" value="1.3.3删除模块" style="rounded=0;whiteSpace=wrap;html=1;" vertex="1" parent="1">
          <mxGeometry x="1048" y="250" width="54" height="30" as="geometry" />
        </mxCell>
        <mxCell id="fMN76NUoh_S9sjrAMHmD-43" style="rounded=0;orthogonalLoop=1;jettySize=auto;html=1;exitX=0.5;exitY=1;exitDx=0;exitDy=0;entryX=0.5;entryY=0;entryDx=0;entryDy=0;" edge="1" parent="1" source="fMN76NUoh_S9sjrAMHmD-44" target="fMN76NUoh_S9sjrAMHmD-49">
          <mxGeometry relative="1" as="geometry" />
        </mxCell>
        <mxCell id="fMN76NUoh_S9sjrAMHmD-44" value="1.3.2浏览模块" style="rounded=0;whiteSpace=wrap;html=1;" vertex="1" parent="1">
          <mxGeometry x="988" y="250" width="52" height="30" as="geometry" />
        </mxCell>
        <mxCell id="fMN76NUoh_S9sjrAMHmD-45" style="rounded=0;orthogonalLoop=1;jettySize=auto;html=1;exitX=0.5;exitY=1;exitDx=0;exitDy=0;entryX=0.5;entryY=0;entryDx=0;entryDy=0;" edge="1" parent="1" source="fMN76NUoh_S9sjrAMHmD-46" target="fMN76NUoh_S9sjrAMHmD-49">
          <mxGeometry relative="1" as="geometry" />
        </mxCell>
        <mxCell id="fMN76NUoh_S9sjrAMHmD-46" value="1.3.1修改模块" style="rounded=0;whiteSpace=wrap;html=1;" vertex="1" parent="1">
          <mxGeometry x="930" y="250" width="50" height="30" as="geometry" />
        </mxCell>
        <mxCell id="fMN76NUoh_S9sjrAMHmD-47" style="rounded=0;orthogonalLoop=1;jettySize=auto;html=1;exitX=0.5;exitY=1;exitDx=0;exitDy=0;entryX=0.5;entryY=0;entryDx=0;entryDy=0;" edge="1" parent="1" source="fMN76NUoh_S9sjrAMHmD-48" target="fMN76NUoh_S9sjrAMHmD-49">
          <mxGeometry relative="1" as="geometry" />
        </mxCell>
        <mxCell id="fMN76NUoh_S9sjrAMHmD-48" value="1.3.4撤销模块" style="rounded=0;whiteSpace=wrap;html=1;" vertex="1" parent="1">
          <mxGeometry x="1110" y="250" width="60" height="30" as="geometry" />
        </mxCell>
        <mxCell id="fMN76NUoh_S9sjrAMHmD-49" value="8 业务数据库模块" style="rounded=0;whiteSpace=wrap;html=1;" vertex="1" parent="1">
          <mxGeometry x="1141" y="370" width="100" height="30" as="geometry" />
        </mxCell>
        <mxCell id="fMN76NUoh_S9sjrAMHmD-57" style="rounded=0;orthogonalLoop=1;jettySize=auto;html=1;exitX=0.5;exitY=1;exitDx=0;exitDy=0;entryX=0.5;entryY=0;entryDx=0;entryDy=0;" edge="1" parent="1" source="fMN76NUoh_S9sjrAMHmD-58" target="fMN76NUoh_S9sjrAMHmD-49">
          <mxGeometry relative="1" as="geometry" />
        </mxCell>
        <mxCell id="fMN76NUoh_S9sjrAMHmD-58" value="3.2报表信息读取模块" style="rounded=0;whiteSpace=wrap;html=1;" vertex="1" parent="1">
          <mxGeometry x="1180" y="250" width="70" height="30" as="geometry" />
        </mxCell>
        <mxCell id="fMN76NUoh_S9sjrAMHmD-61" style="rounded=0;orthogonalLoop=1;jettySize=auto;html=1;exitX=0.5;exitY=1;exitDx=0;exitDy=0;entryX=0.5;entryY=0;entryDx=0;entryDy=0;" edge="1" parent="1" source="fMN76NUoh_S9sjrAMHmD-62" target="fMN76NUoh_S9sjrAMHmD-49">
          <mxGeometry relative="1" as="geometry" />
        </mxCell>
        <mxCell id="fMN76NUoh_S9sjrAMHmD-62" value="4.2排行榜信息读取模块" style="rounded=0;whiteSpace=wrap;html=1;" vertex="1" parent="1">
          <mxGeometry x="1264" y="250" width="70" height="30" as="geometry" />
        </mxCell>
        <mxCell id="fMN76NUoh_S9sjrAMHmD-69" style="rounded=0;orthogonalLoop=1;jettySize=auto;html=1;exitX=0.5;exitY=1;exitDx=0;exitDy=0;entryX=0.5;entryY=0;entryDx=0;entryDy=0;" edge="1" parent="1" source="fMN76NUoh_S9sjrAMHmD-70" target="fMN76NUoh_S9sjrAMHmD-49">
          <mxGeometry relative="1" as="geometry" />
        </mxCell>
        <mxCell id="fMN76NUoh_S9sjrAMHmD-70" value="5.2查询处理模块" style="rounded=0;whiteSpace=wrap;html=1;" vertex="1" parent="1">
          <mxGeometry x="1354" y="250" width="50" height="30" as="geometry" />
        </mxCell>
        <mxCell id="fMN76NUoh_S9sjrAMHmD-74" style="rounded=0;orthogonalLoop=1;jettySize=auto;html=1;exitX=0.5;exitY=1;exitDx=0;exitDy=0;entryX=0.5;entryY=0;entryDx=0;entryDy=0;" edge="1" parent="1" source="fMN76NUoh_S9sjrAMHmD-76" target="fMN76NUoh_S9sjrAMHmD-49">
          <mxGeometry relative="1" as="geometry" />
        </mxCell>
        <mxCell id="fMN76NUoh_S9sjrAMHmD-76" value="6.2数据备份操作模块" style="rounded=0;whiteSpace=wrap;html=1;" vertex="1" parent="1">
          <mxGeometry x="1424" y="250" width="70" height="30" as="geometry" />
        </mxCell>
      </root>
    </mxGraphModel>
  </diagram>
</mxfile>
